<?xml version="1.0" standalone="no"?>
<!DOCTYPE svg PUBLIC "-//W3C//DTD SVG 20010904//EN"
 "http://www.w3.org/TR/2001/REC-SVG-20010904/DTD/svg10.dtd">
<svg version="1.0" xmlns="http://www.w3.org/2000/svg"
 width="512.000000pt" height="512.000000pt" viewBox="0 0 512.000000 512.000000"
 preserveAspectRatio="xMidYMid meet">
<metadata>
Created by potrace 1.11, written by Peter Selinger 2001-2013
</metadata>
<g transform="translate(0.000000,512.000000) scale(0.100000,-0.100000)"
fill="#000000" stroke="none">
<path d="M1309 4485 c0 -3 -1 -43 -1 -90 0 -47 1 -92 1 -100 1 -13 147 -15
1251 -15 l1250 0 1 38 c0 20 1 67 2 105 l2 67 -1252 0 c-689 0 -1253 -2 -1254
-5z"/>
<path d="M1315 3981 c5 -88 13 -200 20 -286 9 -113 23 -311 30 -430 3 -44 7
-98 10 -120 2 -22 7 -89 10 -150 4 -60 8 -121 10 -135 2 -14 7 -74 10 -135 3
-60 8 -126 10 -145 3 -19 7 -78 10 -130 3 -52 8 -115 10 -140 2 -25 7 -85 10
-135 3 -49 7 -115 10 -145 2 -30 7 -93 10 -140 3 -47 8 -108 10 -137 3 -28 7
-96 10 -151 3 -56 8 -110 10 -122 2 -11 7 -73 10 -138 4 -64 8 -133 10 -152 2
-19 7 -78 10 -130 3 -52 8 -115 10 -139 9 -88 18 -227 18 -258 l-1 -33 374 0
374 0 2 28 c0 15 2 32 3 37 1 6 5 46 9 90 5 44 10 89 11 100 2 11 7 52 10 90
3 39 8 84 10 100 2 17 7 57 10 90 3 33 8 74 10 90 7 57 17 150 21 195 2 25 6
68 10 95 3 28 7 66 9 85 4 41 14 140 20 190 7 61 37 343 40 385 4 40 12 120
20 185 2 19 6 62 10 95 3 33 7 76 10 95 2 19 7 62 10 95 6 71 14 139 20 180 2
17 7 66 11 110 9 118 18 119 29 3 3 -43 8 -90 10 -105 10 -89 17 -153 20 -194
2 -25 6 -63 9 -85 3 -21 10 -88 16 -149 14 -139 19 -192 25 -230 2 -16 7 -61
10 -100 3 -38 8 -81 10 -95 2 -14 7 -56 10 -95 4 -38 8 -81 10 -95 2 -14 7
-56 10 -95 4 -38 8 -81 10 -95 3 -22 6 -50 21 -189 2 -20 5 -52 8 -71 2 -19 7
-69 11 -110 3 -41 8 -86 10 -100 2 -14 6 -54 10 -90 4 -36 8 -76 10 -90 2 -14
7 -59 10 -100 3 -41 8 -86 10 -100 2 -14 6 -53 10 -87 l7 -63 372 0 371 0 4
63 c1 34 4 78 6 97 2 19 6 78 10 130 3 52 8 120 10 150 3 30 7 89 10 130 2 41
7 107 10 145 9 111 14 184 21 275 3 47 7 110 9 140 3 30 7 91 10 135 3 44 8
105 10 135 4 53 12 155 20 285 2 33 6 89 9 125 3 36 8 103 11 150 3 47 8 108
10 135 2 28 7 93 10 145 4 52 8 111 10 130 2 19 6 80 10 135 3 55 8 123 10
150 2 28 6 88 10 135 3 47 7 108 10 135 2 28 7 91 10 140 3 50 8 113 10 140 3
28 7 89 10 136 l6 86 -1250 0 -1251 0 5 -76z"/>
</g>
</svg>
