<?xml version="1.0" standalone="no"?>
<!DOCTYPE svg PUBLIC "-//W3C//DTD SVG 20010904//EN"
 "http://www.w3.org/TR/2001/REC-SVG-20010904/DTD/svg10.dtd">
<svg version="1.0" xmlns="http://www.w3.org/2000/svg"
 width="388.000000pt" height="388.000000pt" viewBox="0 0 388.000000 388.000000"
 preserveAspectRatio="xMidYMid meet">
<metadata>
Created by potrace 1.11, written by Peter Selinger 2001-2013
</metadata>
<g transform="translate(0.000000,388.000000) scale(0.100000,-0.100000)"
fill="#000000" stroke="none">
<path d="M0 3550 c0 -24 5 -31 27 -36 15 -4 887 -238 1938 -519 l1910 -512 3
25 c2 13 0 28 -5 32 -7 6 -3851 1040 -3868 1040 -3 0 -5 -13 -5 -30z"/>
<path d="M1040 2115 c-40 -470 -72 -857 -69 -859 4 -4 182 -22 279 -28 l45 -3
17 199 17 200 38 33 c21 18 54 47 74 63 l36 30 33 -73 c34 -72 45 -97 139
-304 28 -61 58 -129 66 -150 l16 -39 201 -17 c110 -10 202 -16 203 -15 3 3
-21 55 -244 516 -77 162 -141 297 -141 301 0 4 42 45 93 91 50 45 142 129 202
185 61 56 127 117 148 135 21 18 36 34 34 36 -4 4 -54 9 -167 19 -125 10 -206
18 -224 21 -14 2 -64 -41 -175 -150 -193 -190 -284 -275 -294 -276 -5 0 -6 3
-4 8 3 4 8 45 11 92 4 47 11 135 16 195 6 61 12 135 15 165 2 30 9 109 15 175
6 66 13 147 16 180 3 33 7 65 9 72 7 22 -9 25 -165 38 -41 3 -95 8 -120 11
l-46 4 -74 -855z"/>
<path d="M0 2418 l0 -512 35 34 c19 18 36 32 38 29 2 -2 27 -94 56 -204 29
-110 55 -203 59 -206 10 -10 393 -111 398 -106 3 2 -52 170 -120 373 l-125
368 42 35 c315 270 518 455 506 461 -8 5 -95 30 -193 56 l-179 48 -144 -148
c-80 -81 -147 -146 -149 -144 -2 3 -27 93 -56 201 l-52 197 -52 15 c-29 8 -55
15 -58 15 -3 0 -6 -230 -6 -512z"/>
<path d="M2500 2252 c0 -5 52 -163 115 -351 63 -188 115 -346 115 -351 0 -4
-131 -122 -290 -261 -160 -138 -287 -255 -283 -259 10 -9 354 -100 377 -100 9
0 85 68 167 151 83 83 152 149 153 147 1 -1 11 -34 21 -73 53 -208 88 -331 96
-340 12 -12 393 -114 397 -105 1 3 -53 171 -121 372 l-124 365 126 109 c69 60
161 141 205 179 45 39 116 101 159 138 46 40 72 69 65 72 -7 3 -94 27 -193 54
l-180 48 -147 -145 c-81 -80 -149 -144 -152 -141 -3 2 -28 90 -55 194 -28 104
-54 192 -59 197 -6 6 -372 108 -388 108 -2 0 -4 -4 -4 -8z"/>
</g>
</svg>
